<svg width="444" height="195" viewBox="0 0 444 195" fill="none" xmlns="http://www.w3.org/2000/svg">
<path d="M100.513 87.4717H125.293L100.513 49.9997H75.7334L100.513 87.4717Z" fill="#8E56EA"/>
<path d="M75.1352 87.4717H50.3554L75.1352 49.9997H99.915L75.1352 87.4717Z" fill="#A574ED"/>
<path d="M100.517 124.944L100.517 87.4724L125.296 87.4724L125.296 124.944L100.517 124.944Z" fill="#C19AF4"/>
<path d="M50.3516 124.944L50.3516 87.4724L75.1314 87.4724L75.1314 124.944L50.3516 124.944Z" fill="#C19AF4"/>
<path d="M188.65 74V124.992H178.422V103.295H156.579V124.992H146.352V74H156.579V94.9666H178.422V74H188.65Z" fill="black"/>
<path d="M213.766 125.649C209.87 125.649 206.363 124.797 203.246 123.093C200.129 121.339 197.67 118.88 195.868 115.714C194.114 112.548 193.238 108.896 193.238 104.756C193.238 100.616 194.139 96.9634 195.941 93.7977C197.791 90.6321 200.3 88.1969 203.465 86.4923C206.631 84.739 210.162 83.8623 214.058 83.8623C217.954 83.8623 221.485 84.739 224.651 86.4923C227.817 88.1969 230.301 90.6321 232.103 93.7977C233.953 96.9634 234.879 100.616 234.879 104.756C234.879 108.896 233.929 112.548 232.03 115.714C230.179 118.88 227.646 121.339 224.432 123.093C221.266 124.797 217.711 125.649 213.766 125.649ZM213.766 116.737C215.617 116.737 217.346 116.298 218.953 115.422C220.609 114.496 221.924 113.133 222.898 111.331C223.872 109.529 224.359 107.337 224.359 104.756C224.359 100.908 223.336 97.9618 221.291 95.9163C219.294 93.8221 216.834 92.775 213.912 92.775C210.99 92.775 208.53 93.8221 206.534 95.9163C204.585 97.9618 203.611 100.908 203.611 104.756C203.611 108.603 204.561 111.574 206.46 113.669C208.409 115.714 210.844 116.737 213.766 116.737Z" fill="black"/>
<path d="M289.72 83.9354C294.688 83.9354 298.682 85.4695 301.701 88.5378C304.769 91.5574 306.304 95.7946 306.304 101.249V124.992H296.076V102.637C296.076 99.4716 295.272 97.0608 293.665 95.4049C292.058 93.7003 289.866 92.848 287.09 92.848C284.314 92.848 282.098 93.7003 280.442 95.4049C278.835 97.0608 278.032 99.4716 278.032 102.637V124.992H267.804V102.637C267.804 99.4716 267 97.0608 265.393 95.4049C263.786 93.7003 261.594 92.848 258.818 92.848C255.993 92.848 253.753 93.7003 252.097 95.4049C250.49 97.0608 249.686 99.4716 249.686 102.637V124.992H239.459V84.5198H249.686V89.4145C251.001 87.7099 252.682 86.3705 254.727 85.3965C256.821 84.4224 259.11 83.9354 261.594 83.9354C264.76 83.9354 267.585 84.6172 270.069 85.9809C272.552 87.2959 274.476 89.1953 275.84 91.6792C277.155 89.3414 279.054 87.4664 281.538 86.054C284.071 84.6416 286.798 83.9354 289.72 83.9354Z" fill="black"/>
<path d="M350.71 103.879C350.71 105.34 350.612 106.655 350.418 107.824H320.831C321.074 110.746 322.097 113.035 323.899 114.691C325.701 116.347 327.917 117.175 330.547 117.175C334.346 117.175 337.049 115.544 338.656 112.281H349.687C348.518 116.177 346.278 119.391 342.966 121.924C339.654 124.408 335.588 125.649 330.766 125.649C326.87 125.649 323.363 124.797 320.246 123.093C317.178 121.339 314.767 118.88 313.014 115.714C311.309 112.548 310.457 108.896 310.457 104.756C310.457 100.567 311.309 96.8904 313.014 93.7247C314.718 90.559 317.105 88.1238 320.173 86.4192C323.241 84.7146 326.772 83.8623 330.766 83.8623C334.613 83.8623 338.047 84.6903 341.067 86.3462C344.135 88.0021 346.497 90.3642 348.153 93.4325C349.858 96.452 350.71 99.9343 350.71 103.879ZM340.117 100.957C340.068 98.3271 339.118 96.2329 337.268 94.6744C335.417 93.0672 333.152 92.2636 330.474 92.2636C327.941 92.2636 325.798 93.0428 324.045 94.6013C322.34 96.1111 321.293 98.2297 320.904 100.957H340.117Z" fill="black"/>
<path d="M393.972 84.5198L368.914 144.132H358.029L366.795 123.969L350.577 84.5198H362.047L372.494 112.792L383.087 84.5198H393.972Z" fill="black"/>
</svg>
